# xmcd
#
# Track frame offsets:
#	150
#	16042
#	29962
#	45887
#	66815
#	83879
#	98407
#	116635
#	136640
#	156180
#	177662
#	194418
#	208240
#	229633
#	245820
#	260375
#	277669
#	295817
#	311673
#	331261
#
# Disc length: 4650 seconds
#
# Revision: 0
# Processed by: cddbd v1.5.2PL0 Copyright (c) Steve Scherf et al.
# Submitted via: EasyCDDAExtractor 2010.6.0.0
#
DISCID=16122814
DTITLE=Various Artist - Testament Van De Eighties cd 4
DYEAR=2011
DGENRE=Pop
TTITLE0=Het Goede Doel - Vriendschap
TTITLE1=Dolly Parton - I Will Always Love You
TTITLE2=Doe Maar - Pa
TTITLE3=Toontje Lager - Zoveel Te Doen
TTITLE4=Wayne Wade - Lady
TTITLE5=Bow Wow Wow - Do You Wanna Hold Me
TTITLE6=Jeffrey Osborne - On The Wings Of Love
TTITLE7=Leo Sayer - Orchard Road
TTITLE8=Irene Cara - Flashdance... What A Feeling
TTITLE9=UB40 - Food For Thought
TTITLE10=Jimmy Cliff - Treat The Youths Right
TTITLE11=Elton John - I´m Still Standing
TTITLE12=Carlos Santana feat. Willie Nelson - They All Went To Mexico
TTITLE13=Grace Jones - La Vie En Rose
TTITLE14=Yello - I Love You
TTITLE15=Spandau Ballet - Gold
TTITLE16=Culture Club - Karma Chameleon
TTITLE17=Peabo Bryson and Roberta Flack - Tonight I Celebrate My Love
TTITLE18=Lionel Richie - All Night Long (All Night)
TTITLE19=Frank Stallone - Far From Over
EXTD=
EXTT0=
EXTT1=
EXTT2=
EXTT3=
EXTT4=
EXTT5=
EXTT6=
EXTT7=
EXTT8=
EXTT9=
EXTT10=
EXTT11=
EXTT12=
EXTT13=
EXTT14=
EXTT15=
EXTT16=
EXTT17=
EXTT18=
EXTT19=
PLAYORDER=
